<svg width="40" height="40" viewBox="0 0 40 40" fill="none" xmlns="http://www.w3.org/2000/svg">
<path d="M24.9999 37.9154H14.9999C5.94992 37.9154 2.08325 34.0487 2.08325 24.9987V14.9987C2.08325 5.9487 5.94992 2.08203 14.9999 2.08203H24.9999C34.0499 2.08203 37.9166 5.9487 37.9166 14.9987V24.9987C37.9166 34.0487 34.0499 37.9154 24.9999 37.9154ZM14.9999 4.58203C7.31659 4.58203 4.58325 7.31536 4.58325 14.9987V24.9987C4.58325 32.682 7.31659 35.4154 14.9999 35.4154H24.9999C32.6833 35.4154 35.4166 32.682 35.4166 24.9987V14.9987C35.4166 7.31536 32.6833 4.58203 24.9999 4.58203H14.9999Z" fill="#67D732"/>
<path d="M17.6334 25.9654C17.3001 25.9654 16.9834 25.832 16.7501 25.5987L12.0334 20.882C11.5501 20.3987 11.5501 19.5987 12.0334 19.1154C12.5167 18.632 13.3167 18.632 13.8001 19.1154L17.6334 22.9487L26.2001 14.382C26.6834 13.8987 27.4834 13.8987 27.9667 14.382C28.4501 14.8654 28.4501 15.6654 27.9667 16.1487L18.5167 25.5987C18.2834 25.832 17.9667 25.9654 17.6334 25.9654Z" fill="#67D732"/>
</svg>
