<svg width="40" height="40" viewBox="0 0 40 40" fill="none" xmlns="http://www.w3.org/2000/svg">
<path d="M26.6666 21.25H13.3333C12.6499 21.25 12.0833 20.6833 12.0833 20C12.0833 19.3167 12.6499 18.75 13.3333 18.75H26.6666C27.3499 18.75 27.9166 19.3167 27.9166 20C27.9166 20.6833 27.3499 21.25 26.6666 21.25Z" fill="#383838"/>
<path d="M20 27.9154C19.3167 27.9154 18.75 27.3487 18.75 26.6654V13.332C18.75 12.6487 19.3167 12.082 20 12.082C20.6833 12.082 21.25 12.6487 21.25 13.332V26.6654C21.25 27.3487 20.6833 27.9154 20 27.9154Z" fill="#383838"/>
<path d="M24.9999 37.9154H14.9999C5.94992 37.9154 2.08325 34.0487 2.08325 24.9987V14.9987C2.08325 5.9487 5.94992 2.08203 14.9999 2.08203H24.9999C34.0499 2.08203 37.9166 5.9487 37.9166 14.9987V24.9987C37.9166 34.0487 34.0499 37.9154 24.9999 37.9154ZM14.9999 4.58203C7.31659 4.58203 4.58325 7.31536 4.58325 14.9987V24.9987C4.58325 32.682 7.31659 35.4154 14.9999 35.4154H24.9999C32.6833 35.4154 35.4166 32.682 35.4166 24.9987V14.9987C35.4166 7.31536 32.6833 4.58203 24.9999 4.58203H14.9999Z" fill="#383838"/>
</svg>
