<svg width="41" height="40" viewBox="0 0 41 40" fill="none" xmlns="http://www.w3.org/2000/svg">
<path d="M35.1665 37.918H15.1665C14.4832 37.918 13.9165 37.3513 13.9165 36.668C13.9165 35.9846 14.4832 35.418 15.1665 35.418H35.1665C35.8498 35.418 36.4165 35.9846 36.4165 36.668C36.4165 37.3513 35.8498 37.918 35.1665 37.918Z" fill="#383838"/>
<path d="M14.4 37.85C12.7333 37.85 11.15 37.2 9.98337 36.0167L4.13335 30.1667C1.70002 27.7333 1.70002 23.7667 4.13335 21.3333L21.5167 3.95C23.8667 1.6 28 1.6 30.35 3.95L36.2 9.79999C38.6333 12.2333 38.6333 16.2 36.2 18.6333L18.8167 36.0167C17.65 37.2167 16.0833 37.85 14.4 37.85ZM5.90001 28.4167L11.75 34.2667C13.1667 35.6833 15.65 35.6833 17.05 34.2667L34.4333 16.8833C35.9 15.4167 35.9 13.05 34.4333 11.5833L28.5833 5.73333C27.1833 4.33333 24.7 4.31667 23.2833 5.73333L5.90001 23.1167C4.43335 24.5667 4.43335 26.95 5.90001 28.4167Z" fill="#383838"/>
<path d="M24.9498 29.3852C24.6331 29.3852 24.3165 29.2685 24.0665 29.0185L11.1499 16.1018C10.6665 15.6185 10.6665 14.8185 11.1499 14.3352C11.6332 13.8518 12.4332 13.8518 12.9165 14.3352L25.8332 27.2518C26.3165 27.7352 26.3165 28.5352 25.8332 29.0185C25.5832 29.2685 25.2665 29.3852 24.9498 29.3852Z" fill="#383838"/>
<path d="M6.03324 30.6831C5.71657 30.6831 5.39985 30.5664 5.14985 30.3164C4.66652 29.8331 4.66652 29.0331 5.14985 28.5497L14.5832 19.1164C15.0666 18.6331 15.8666 18.6331 16.3499 19.1164C16.8332 19.5997 16.8332 20.3997 16.3499 20.8831L6.91652 30.3164C6.66652 30.5664 6.3499 30.6831 6.03324 30.6831Z" fill="#383838"/>
<path d="M10.7329 35.4018C10.4163 35.4018 10.0996 35.2851 9.84956 35.0351C9.36623 34.5518 9.36623 33.7518 9.84956 33.2685L19.2828 23.8352C19.7662 23.3518 20.5663 23.3518 21.0496 23.8352C21.5329 24.3185 21.5329 25.1185 21.0496 25.6018L11.6162 35.0351C11.3829 35.2685 11.0663 35.4018 10.7329 35.4018Z" fill="#383838"/>
</svg>
