<svg width="36" height="36" viewBox="0 0 36 36" fill="none" xmlns="http://www.w3.org/2000/svg">
<path d="M23.0832 35.9154H13.0832C4.03317 35.9154 0.166504 32.0487 0.166504 22.9987V12.9987C0.166504 3.9487 4.03317 0.0820312 13.0832 0.0820312H23.0832C32.1332 0.0820312 35.9998 3.9487 35.9998 12.9987V22.9987C35.9998 32.0487 32.1332 35.9154 23.0832 35.9154ZM13.0832 2.58203C5.39984 2.58203 2.6665 5.31536 2.6665 12.9987V22.9987C2.6665 30.682 5.39984 33.4154 13.0832 33.4154H23.0832C30.7665 33.4154 33.4998 30.682 33.4998 22.9987V12.9987C33.4998 5.31536 30.7665 2.58203 23.0832 2.58203H13.0832Z" fill="#383838"/>
</svg>
