<svg width="41" height="40" viewBox="0 0 41 40" fill="none" xmlns="http://www.w3.org/2000/svg">
<path d="M35.1666 11.2148C35.1333 11.2148 35.0833 11.2148 35.0333 11.2148C26.2166 10.3315 17.4166 9.99817 8.69994 10.8815L5.29994 11.2148C4.59994 11.2815 3.98327 10.7815 3.91661 10.0815C3.84994 9.3815 4.34994 8.7815 5.03327 8.71484L8.43327 8.3815C17.2999 7.4815 26.2833 7.8315 35.2833 8.71484C35.9666 8.7815 36.4666 9.39817 36.3999 10.0815C36.3499 10.7315 35.7999 11.2148 35.1666 11.2148Z" fill="#383838"/>
<path d="M14.3333 9.53203C14.2666 9.53203 14.1999 9.53203 14.1166 9.51537C13.4499 9.3987 12.9833 8.7487 13.0999 8.08203L13.4666 5.8987C13.7333 4.2987 14.0999 2.08203 17.9833 2.08203H22.3499C26.2499 2.08203 26.6166 4.38203 26.8666 5.91536L27.2333 8.08203C27.3499 8.76537 26.8833 9.41537 26.2166 9.51537C25.5333 9.63203 24.8833 9.16537 24.7833 8.4987L24.4166 6.33203C24.1833 4.88203 24.1333 4.5987 22.3666 4.5987H17.9999C16.2333 4.5987 16.1999 4.83203 15.9499 6.31537L15.5666 8.48203C15.4666 9.0987 14.9333 9.53203 14.3333 9.53203Z" fill="#383838"/>
<path d="M25.5165 37.9153H14.8165C8.99983 37.9153 8.7665 34.6987 8.58316 32.0987L7.49983 15.3153C7.44983 14.632 7.98316 14.032 8.6665 13.982C9.3665 13.9487 9.94983 14.4653 9.99983 15.1487L11.0832 31.932C11.2665 34.4653 11.3332 35.4153 14.8165 35.4153H25.5165C29.0165 35.4153 29.0832 34.4653 29.2498 31.932L30.3332 15.1487C30.3832 14.4653 30.9832 13.9487 31.6665 13.982C32.3498 14.032 32.8832 14.6153 32.8332 15.3153L31.7498 32.0987C31.5665 34.6987 31.3332 37.9153 25.5165 37.9153Z" fill="#383838"/>
<path d="M22.9331 28.75H17.3831C16.6997 28.75 16.1331 28.1833 16.1331 27.5C16.1331 26.8167 16.6997 26.25 17.3831 26.25H22.9331C23.6164 26.25 24.1831 26.8167 24.1831 27.5C24.1831 28.1833 23.6164 28.75 22.9331 28.75Z" fill="#383838"/>
<path d="M24.3331 22.082H15.9998C15.3164 22.082 14.7498 21.5154 14.7498 20.832C14.7498 20.1487 15.3164 19.582 15.9998 19.582H24.3331C25.0164 19.582 25.5831 20.1487 25.5831 20.832C25.5831 21.5154 25.0164 22.082 24.3331 22.082Z" fill="#383838"/>
</svg>
