<svg width="20" height="21" viewBox="0 0 20 21" fill="none" xmlns="http://www.w3.org/2000/svg">
<path d="M2.08945 20.7609C1.55835 20.7609 1.02725 20.5652 0.607967 20.1459C-0.202655 19.3353 -0.202655 17.9936 0.607967 17.183L16.4291 1.36187C17.2397 0.551251 18.5814 0.551251 19.392 1.36187C20.2027 2.17249 20.2027 3.51421 19.392 4.32483L3.57093 20.1459C3.17959 20.5652 2.62054 20.7609 2.08945 20.7609Z" fill="#383838"/>
<path d="M17.9106 20.7609C17.3795 20.7609 16.8484 20.5652 16.4291 20.1459L0.607967 4.32483C-0.202655 3.51421 -0.202655 2.17249 0.607967 1.36187C1.41859 0.551251 2.76031 0.551251 3.57093 1.36187L19.392 17.183C20.2027 17.9936 20.2027 19.3353 19.392 20.1459C18.9727 20.5652 18.4416 20.7609 17.9106 20.7609Z" fill="#383838"/>
</svg>
